<?xml version="1.0" encoding="UTF-8" standalone="no"?>
<!-- Created with Inkscape (http://www.inkscape.org/) -->

<svg
   width="64"
   height="64"
   viewBox="0 0 16.933332 16.933332"
   version="1.1"
   id="svg5"
   inkscape:version="1.2.2 (732a01da63, 2022-12-09)"
   sodipodi:docname="icon.svg"
   xmlns:inkscape="http://www.inkscape.org/namespaces/inkscape"
   xmlns:sodipodi="http://sodipodi.sourceforge.net/DTD/sodipodi-0.dtd"
   xmlns="http://www.w3.org/2000/svg"
   xmlns:svg="http://www.w3.org/2000/svg">
  <sodipodi:namedview
     id="namedview7"
     pagecolor="#ffffff"
     bordercolor="#000000"
     borderopacity="0.25"
     inkscape:showpageshadow="2"
     inkscape:pageopacity="0.0"
     inkscape:pagecheckerboard="0"
     inkscape:deskcolor="#d1d1d1"
     inkscape:document-units="mm"
     showgrid="true"
     inkscape:zoom="8.7379317"
     inkscape:cx="40.284133"
     inkscape:cy="25.292026"
     inkscape:window-width="1366"
     inkscape:window-height="705"
     inkscape:window-x="-8"
     inkscape:window-y="-8"
     inkscape:window-maximized="1"
     inkscape:current-layer="layer1">
    <inkscape:grid
       type="xygrid"
       id="grid9"
       spacingx="0.26458333"
       spacingy="0.26458333"
       empspacing="10"
       originx="0"
       originy="0" />
  </sodipodi:namedview>
  <defs
     id="defs2" />
  <g
     inkscape:label="Layer 1"
     inkscape:groupmode="layer"
     id="layer1">
    <path
       id="rect167"
       style="fill:#aaccff;stroke:#000000;stroke-width:0.164678"
       d="m 8.446987,8.446987 h 6.898846 v 2.759539 l 1.379769,-0.689884 v 2.759537 l -1.379769,-0.689883 v 2.759537 h -2.759537 v -0.459922 c 0.229962,0 0.459922,-0.919847 -0.689885,-0.919847 -1.149807,0 -0.919846,0.919847 -0.689884,0.919847 v 0.459922 h -2.75954 z"
       sodipodi:nodetypes="ccccccccczcccc"
       inkscape:transform-center-x="-4.1445709"
       inkscape:transform-center-y="3.4445229" />
    <path
       id="rect167-1"
       style="fill:#5599ff;stroke:#000000;stroke-width:0.164678"
       d="M 1.5481407,1.5481408 H 8.446987 V 8.4469864 H 5.6874502 L 5.227526,9.8267552 H 4.7676035 L 4.307681,8.4469864 H 1.5481407 l 1.8e-6,-2.7595378 1.3797692,0.6898847 V 3.6177947 L 1.5481425,4.3076792 Z"
       sodipodi:nodetypes="ccccccccccccc"
       inkscape:transform-center-x="3.4441591"
       inkscape:transform-center-y="-2.7644383" />
    <path
       id="rect167-1-8"
       style="fill:#003380;stroke:#000000;stroke-width:0.164678"
       d="M 1.5481399,8.4469878 H 4.3076791 L 4.7676017,9.8267572 H 5.227524 L 5.6874483,8.4469878 H 8.4469868 V 15.345833 H 1.5481399 V 12.586297 H 1.0882167 v 0.459922 L 0.16837062,12.586297 v -1.37977 L 1.0882167,10.746603 v 0.459924 h 0.4599232 z"
       sodipodi:nodetypes="ccccccccccccccccc"
       inkscape:transform-center-x="4.1340443"
       inkscape:transform-center-y="3.4445232" />
    <path
       id="rect167-1-0"
       style="fill:#0066ff;stroke:#000000;stroke-width:0.164678"
       d="m 8.446987,1.5481411 h 2.75954 V 1.088218 c -0.229962,0 -0.459925,-0.91984585 0.689884,-0.91984585 1.149807,0 0.919846,0.91984585 0.689885,0.91984585 v 0.4599231 h 2.759537 v 2.7595383 h -0.459924 v -0.459923 l -0.919847,0.459923 v 1.3797692 l 0.919847,0.4599232 V 5.6874486 h 0.459924 V 8.4469867 H 8.446987 Z"
       sodipodi:nodetypes="ccczcccccccccccccc"
       inkscape:transform-center-x="-3.4546864"
       inkscape:transform-center-y="-4.1442068" />
  </g>
</svg>
